<mxfile host="app.diagrams.net" modified="2023-11-08T01:32:35.351Z" agent="Mozilla/5.0 (Windows NT 10.0; Win64; x64) AppleWebKit/537.36 (KHTML, like Gecko) Chrome/118.0.0.0 Safari/537.36" etag="MSNuApUf7l-NkscrFaJW" version="22.0.8" type="github">
  <diagram name="Page-1" id="-BnOKk7zBx1o7q-ae8Bt">
    <mxGraphModel dx="1778" dy="508" grid="1" gridSize="10" guides="1" tooltips="1" connect="1" arrows="1" fold="1" page="1" pageScale="1" pageWidth="850" pageHeight="1100" math="0" shadow="0">
      <root>
        <mxCell id="0" />
        <mxCell id="1" parent="0" />
        <mxCell id="5oHPIco3NphGqqeCcxbC-1" value="&lt;font style=&quot;font-size: 18px;&quot;&gt;&lt;b style=&quot;&quot;&gt;Climate Change on Honeybees&lt;/b&gt;&lt;/font&gt;" style="shape=or;whiteSpace=wrap;html=1;" vertex="1" parent="1">
          <mxGeometry x="600" y="250" width="160" height="200" as="geometry" />
        </mxCell>
        <mxCell id="5oHPIco3NphGqqeCcxbC-6" value="" style="endArrow=none;html=1;rounded=0;entryX=0;entryY=0.5;entryDx=0;entryDy=0;entryPerimeter=0;" edge="1" parent="1" target="5oHPIco3NphGqqeCcxbC-1">
          <mxGeometry width="50" height="50" relative="1" as="geometry">
            <mxPoint x="40" y="350" as="sourcePoint" />
            <mxPoint x="380" y="580" as="targetPoint" />
          </mxGeometry>
        </mxCell>
        <mxCell id="5oHPIco3NphGqqeCcxbC-7" value="" style="endArrow=none;html=1;rounded=0;" edge="1" parent="1">
          <mxGeometry width="50" height="50" relative="1" as="geometry">
            <mxPoint x="320" y="520" as="sourcePoint" />
            <mxPoint x="450" y="350" as="targetPoint" />
          </mxGeometry>
        </mxCell>
        <mxCell id="5oHPIco3NphGqqeCcxbC-8" value="" style="endArrow=none;html=1;rounded=0;" edge="1" parent="1">
          <mxGeometry width="50" height="50" relative="1" as="geometry">
            <mxPoint x="70" y="520" as="sourcePoint" />
            <mxPoint x="200" y="350" as="targetPoint" />
          </mxGeometry>
        </mxCell>
        <mxCell id="5oHPIco3NphGqqeCcxbC-9" value="" style="endArrow=none;html=1;rounded=0;" edge="1" parent="1">
          <mxGeometry width="50" height="50" relative="1" as="geometry">
            <mxPoint x="70" y="190" as="sourcePoint" />
            <mxPoint x="201" y="350" as="targetPoint" />
          </mxGeometry>
        </mxCell>
        <mxCell id="5oHPIco3NphGqqeCcxbC-11" value="" style="endArrow=none;html=1;rounded=0;" edge="1" parent="1">
          <mxGeometry width="50" height="50" relative="1" as="geometry">
            <mxPoint x="320" y="190" as="sourcePoint" />
            <mxPoint x="451" y="350" as="targetPoint" />
          </mxGeometry>
        </mxCell>
        <mxCell id="5oHPIco3NphGqqeCcxbC-12" value="&lt;b&gt;Limited Knowledge of Staff&lt;/b&gt;" style="text;html=1;align=center;verticalAlign=middle;resizable=0;points=[];autosize=1;strokeColor=none;fillColor=none;" vertex="1" parent="1">
          <mxGeometry x="360" y="200" width="180" height="30" as="geometry" />
        </mxCell>
        <mxCell id="5oHPIco3NphGqqeCcxbC-13" value="" style="endArrow=none;html=1;rounded=0;entryX=0;entryY=0.367;entryDx=0;entryDy=0;entryPerimeter=0;" edge="1" parent="1" target="5oHPIco3NphGqqeCcxbC-12">
          <mxGeometry width="50" height="50" relative="1" as="geometry">
            <mxPoint x="337" y="211" as="sourcePoint" />
            <mxPoint x="387" y="161" as="targetPoint" />
          </mxGeometry>
        </mxCell>
        <mxCell id="5oHPIco3NphGqqeCcxbC-15" value="- Lack of Knowledge about protecting bees" style="text;html=1;align=center;verticalAlign=middle;resizable=0;points=[];autosize=1;strokeColor=none;fillColor=none;" vertex="1" parent="1">
          <mxGeometry x="370" y="220" width="250" height="30" as="geometry" />
        </mxCell>
        <mxCell id="5oHPIco3NphGqqeCcxbC-16" value="- Lack of Seminar about honeybee" style="text;html=1;align=center;verticalAlign=middle;resizable=0;points=[];autosize=1;strokeColor=none;fillColor=none;" vertex="1" parent="1">
          <mxGeometry x="380" y="240" width="210" height="30" as="geometry" />
        </mxCell>
        <mxCell id="5oHPIco3NphGqqeCcxbC-17" value="&lt;b&gt;Man Power&lt;/b&gt;" style="text;html=1;align=center;verticalAlign=middle;resizable=0;points=[];autosize=1;strokeColor=none;fillColor=none;" vertex="1" parent="1">
          <mxGeometry x="275" y="168" width="90" height="30" as="geometry" />
        </mxCell>
        <mxCell id="5oHPIco3NphGqqeCcxbC-18" value="&lt;b&gt;Materials&lt;/b&gt;" style="text;html=1;align=center;verticalAlign=middle;resizable=0;points=[];autosize=1;strokeColor=none;fillColor=none;" vertex="1" parent="1">
          <mxGeometry x="280" y="520" width="80" height="30" as="geometry" />
        </mxCell>
        <mxCell id="5oHPIco3NphGqqeCcxbC-19" value="&lt;b&gt;Machine&lt;/b&gt;" style="text;html=1;align=center;verticalAlign=middle;resizable=0;points=[];autosize=1;strokeColor=none;fillColor=none;" vertex="1" parent="1">
          <mxGeometry x="35" y="520" width="70" height="30" as="geometry" />
        </mxCell>
        <mxCell id="5oHPIco3NphGqqeCcxbC-20" value="&lt;b&gt;Methods&lt;/b&gt;" style="text;html=1;align=center;verticalAlign=middle;resizable=0;points=[];autosize=1;strokeColor=none;fillColor=none;" vertex="1" parent="1">
          <mxGeometry x="35" y="160" width="70" height="30" as="geometry" />
        </mxCell>
        <mxCell id="5oHPIco3NphGqqeCcxbC-24" value="" style="triangle;whiteSpace=wrap;html=1;rotation=0;" vertex="1" parent="1">
          <mxGeometry x="-40" y="265" width="80" height="170" as="geometry" />
        </mxCell>
        <mxCell id="5oHPIco3NphGqqeCcxbC-25" value="&lt;b&gt;Insufficient education and &lt;br&gt;training for beekeepers&lt;/b&gt;" style="text;html=1;align=center;verticalAlign=middle;resizable=0;points=[];autosize=1;strokeColor=none;fillColor=none;" vertex="1" parent="1">
          <mxGeometry x="-65" y="220" width="170" height="40" as="geometry" />
        </mxCell>
        <mxCell id="5oHPIco3NphGqqeCcxbC-27" value="" style="endArrow=none;html=1;rounded=0;entryX=0;entryY=0.367;entryDx=0;entryDy=0;entryPerimeter=0;" edge="1" parent="1">
          <mxGeometry width="50" height="50" relative="1" as="geometry">
            <mxPoint x="404" y="410" as="sourcePoint" />
            <mxPoint x="437" y="410" as="targetPoint" />
          </mxGeometry>
        </mxCell>
        <mxCell id="5oHPIco3NphGqqeCcxbC-28" value="&lt;b&gt;Lack of supply of &lt;br&gt;beekeeping equipment&amp;nbsp;&lt;/b&gt;" style="text;html=1;align=center;verticalAlign=middle;resizable=0;points=[];autosize=1;strokeColor=none;fillColor=none;" vertex="1" parent="1">
          <mxGeometry x="400" y="410" width="160" height="40" as="geometry" />
        </mxCell>
        <mxCell id="5oHPIco3NphGqqeCcxbC-29" value="- Protective gear" style="text;html=1;align=center;verticalAlign=middle;resizable=0;points=[];autosize=1;strokeColor=none;fillColor=none;" vertex="1" parent="1">
          <mxGeometry x="420" y="450" width="110" height="30" as="geometry" />
        </mxCell>
        <mxCell id="5oHPIco3NphGqqeCcxbC-32" value="" style="endArrow=none;html=1;rounded=0;entryX=0;entryY=0.367;entryDx=0;entryDy=0;entryPerimeter=0;" edge="1" parent="1">
          <mxGeometry width="50" height="50" relative="1" as="geometry">
            <mxPoint x="162" y="400" as="sourcePoint" />
            <mxPoint x="195" y="400" as="targetPoint" />
          </mxGeometry>
        </mxCell>
        <mxCell id="5oHPIco3NphGqqeCcxbC-34" value="" style="endArrow=none;html=1;rounded=0;entryX=0;entryY=0.367;entryDx=0;entryDy=0;entryPerimeter=0;" edge="1" parent="1">
          <mxGeometry width="50" height="50" relative="1" as="geometry">
            <mxPoint x="61" y="220" as="sourcePoint" />
            <mxPoint x="94" y="220" as="targetPoint" />
          </mxGeometry>
        </mxCell>
        <mxCell id="5oHPIco3NphGqqeCcxbC-35" value="&lt;b&gt;Inefficient beekeeping equipment&lt;/b&gt;" style="text;html=1;align=center;verticalAlign=middle;resizable=0;points=[];autosize=1;strokeColor=none;fillColor=none;" vertex="1" parent="1">
          <mxGeometry x="150" y="400" width="210" height="30" as="geometry" />
        </mxCell>
        <mxCell id="5oHPIco3NphGqqeCcxbC-36" value="" style="endArrow=none;html=1;rounded=0;entryX=0;entryY=0.367;entryDx=0;entryDy=0;entryPerimeter=0;" edge="1" parent="1">
          <mxGeometry width="50" height="50" relative="1" as="geometry">
            <mxPoint x="328" y="240" as="sourcePoint" />
            <mxPoint x="361" y="240" as="targetPoint" />
          </mxGeometry>
        </mxCell>
        <mxCell id="5oHPIco3NphGqqeCcxbC-37" value="&lt;b&gt;Inadequate beekeeping practices&lt;/b&gt;" style="text;html=1;align=center;verticalAlign=middle;resizable=0;points=[];autosize=1;strokeColor=none;fillColor=none;" vertex="1" parent="1">
          <mxGeometry x="155" y="240" width="210" height="30" as="geometry" />
        </mxCell>
        <mxCell id="5oHPIco3NphGqqeCcxbC-38" value="- Protective gear" style="text;html=1;align=center;verticalAlign=middle;resizable=0;points=[];autosize=1;strokeColor=none;fillColor=none;" vertex="1" parent="1">
          <mxGeometry x="180" y="420" width="110" height="30" as="geometry" />
        </mxCell>
      </root>
    </mxGraphModel>
  </diagram>
</mxfile>
